<svg xmlns="http://www.w3.org/2000/svg" viewBox="0 0 1024 1024" role="img" aria-label="Business Site Audit icon">
  <defs>
    <radialGradient id="bg" cx="48%" cy="34%" r="78%"><stop stop-color="#19202A"/><stop offset="1" stop-color="#080B10"/></radialGradient>
    <linearGradient id="gold" x1="0" y1="0" x2="1" y2="1"><stop stop-color="#FFE4A1"/><stop offset=".53" stop-color="#D6AB55"/><stop offset="1" stop-color="#936626"/></linearGradient>
    <filter id="glow" x="-30%" y="-30%" width="160%" height="160%"><feGaussianBlur stdDeviation="15"/></filter>
  </defs>
  <rect width="1024" height="1024" rx="220" fill="url(#bg)"/>
  <rect x="201" y="202" width="622" height="567" rx="75" fill="none" stroke="#8E6A32" stroke-width="15" opacity=".35" filter="url(#glow)"/>
  <rect x="201" y="202" width="622" height="567" rx="75" fill="#0B1017" stroke="url(#gold)" stroke-width="19"/>
  <path d="M214 315h596" stroke="url(#gold)" stroke-width="17"/>
  <circle cx="271" cy="258" r="13" fill="#D6AB55"/>
  <circle cx="317" cy="258" r="13" fill="#D6AB55" opacity=".68"/>
  <circle cx="363" cy="258" r="13" fill="#D6AB55" opacity=".4"/>
  <path d="M297 420h139M297 475h100M297 565h91M297 620h130" stroke="#B79B6B" stroke-width="17" stroke-linecap="round" opacity=".58"/>
  <circle cx="594" cy="520" r="133" fill="#131A23" stroke="url(#gold)" stroke-width="27"/>
  <path d="m690 615 139 140" stroke="#9D712D" stroke-width="55" stroke-linecap="round" opacity=".37" filter="url(#glow)"/>
  <path d="m690 615 139 140" stroke="url(#gold)" stroke-width="42" stroke-linecap="round"/>
  <path d="M536 567v-75m57 75V452m57 115v-42" stroke="#F1CF82" stroke-width="21" stroke-linecap="round"/>
</svg>
